# xmcd
#
# Track frame offsets:
#	150
#	17055
#	30427
#	47880
#	66530
#	80715
#	96472
#	108275
#	123277
#	138932
#	152550
#	168282
#	183197
#	202327
#
# Disc length: 2865
#
# Revision: 1
# Processed by: cddbd v1.5.1PL0 Copyright (c) Steve Scherf et al.
# Submitted via: VisiTrax 2.9.3.171 - For more info visit www.synapsa.com
# Normalized: r0:DSETVAR1
#
DISCID=bf0b2f0e
DTITLE=Various Artist - Mr Music Country 4-00
DYEAR=1900
DGENRE=
TTITLE0=Dixie Chicks - Hello Mr Heartache
TTITLE1=Bruce Robison - The Good Life
TTITLE2=Byron Berline and Jann Browne - Second Fiddle
TTITLE3=Joe Diffie - Poor Me
TTITLE4=Lisa Brokop - Love Is
TTITLE5=Brian Burns - Fast Train To Texas
TTITLE6=Heather Myles - Playin' Every Honky Tonk In Town
TTITLE7=Ty Herndon - Pray For Me
TTITLE8=David Allan Coe - Drink My Wife Away
TTITLE9=Peggy Rains - If My Heart Had Windows
TTITLE10=Wade Hayes - She's Actin' Single (I'm drinkin' Doubles)
TTITLE11=Jack Ingram - (If You See) Juanita
TTITLE12=Aaron Springfiels - Mystery
TTITLE13=Mike Bella - Someone Had To Teach You
EXTD=
EXTT0=
EXTT1=
EXTT2=
EXTT3=
EXTT4=
EXTT5=
EXTT6=
EXTT7=
EXTT8=
EXTT9=
EXTT10=
EXTT11=
EXTT12=
EXTT13=
PLAYORDER=
